<svg width="200" height="20" viewBox="0 0 200 20" fill="none" xmlns="http://www.w3.org/2000/svg">
<g clip-path="url(#clip0_564_390)">
<path d="M23.904 16.003H30.924L32.537 13.155H23.905L23.904 16.003ZM23.904 8.09495V10.943H33.814L35.463 8.09495H23.904ZM172.688 11.472V3.05995H169.581V16.003H172.182L179.658 7.53095V16.003H182.764V3.05995H180.02L172.688 11.472ZM42.169 3.05995L34.729 16.003H38.389L43.289 7.45795L48.225 16.003H52.078L44.638 3.05995H42.169ZM19.813 13.154L12.373 0.199951H9.833L2.392 13.154H0.526001V19.8H3.487V16.002H18.717V19.8H21.679V13.154H19.813ZM6.1 13.154L11 4.59795L15.936 13.154H6.1ZM121.351 3.05995H106.892V5.90795H119.689L121.351 3.05995ZM38.352 3.05995H23.905V5.90795H36.703L38.352 3.05995ZM196.729 3.05995L189.397 11.472V3.05995H186.291V16.003H188.903L196.368 7.53095V16.003H199.474V3.05995H196.729ZM162.947 8.09495H156.145V3.05995H153.038V16.003H156.145V10.943H162.947V16.003H166.053V3.05995H162.947V8.09495ZM125.156 3.05995L117.716 16.003H121.388L126.288 7.45795L131.224 16.003H135.065L127.624 3.05995H125.156ZM94.455 7.69995H89.736V3.04895H86.63V16.003H94.431C96.538 16.003 98.729 14.838 98.729 11.785C98.717 7.77195 95.9 7.69995 94.455 7.69995ZM94.275 13.264H89.724V10.38H94.275C94.804 10.38 95.611 10.524 95.611 11.822C95.611 13.023 94.949 13.264 94.275 13.264ZM103.377 3.05995H100.307V16.015H103.377V3.05995ZM59.904 2.74695C54.714 2.74695 52.259 5.91995 52.259 9.46495C52.259 13.166 54.654 16.182 59.904 16.182C62.191 16.182 67.488 15.125 67.488 9.46495C67.488 5.76395 65.117 2.74695 59.904 2.74695ZM59.868 13.334C56.87 13.334 55.606 11.616 55.606 9.50095C55.606 7.18095 57.05 5.63095 59.868 5.63095C63.046 5.63095 64.129 7.18095 64.129 9.50095C64.129 12.277 62.047 13.334 59.868 13.334ZM106.892 16.003H113.911L115.536 13.155H106.892V16.003ZM106.892 8.09495V10.943H116.8L118.461 8.09495H106.892ZM139.435 11.4V3.05995H136.329V16.003H138.942L146.418 7.60295V16.003H149.524V3.05995H146.912L139.435 11.4ZM81.044 8.37195C81.862 8.02295 82.561 7.45895 82.561 6.05195C82.561 3.37195 80.309 3.05995 78.72 3.05995H70.329V16.015H78.865C82.777 16.015 83.584 13.864 83.584 11.893C83.596 9.66995 82.332 8.75595 81.044 8.37195ZM73.399 5.79995H78.371C79.117 5.79995 79.43 6.18495 79.43 6.92995C79.43 7.69895 78.937 8.09495 78.371 8.09495H73.399V5.79995ZM78.865 13.263H73.399V10.487H78.865C79.743 10.487 80.382 10.703 80.382 11.857C80.382 12.77 79.996 13.263 78.865 13.263Z" fill="#063971"/>
</g>
<defs>
<clipPath id="clip0_564_390">
<rect width="198.948" height="19.6" fill="white" transform="translate(0.526001 0.199951)"/>
</clipPath>
</defs>
</svg>
