<svg width="16" height="17" viewBox="0 0 16 17" fill="none" xmlns="http://www.w3.org/2000/svg">
<g clip-path="url(#clip0_591_68)">
<path fill-rule="evenodd" clip-rule="evenodd" d="M7.60715 0.892822C11.8085 0.892822 15.2143 4.29866 15.2143 8.49997C15.2143 12.7013 11.8085 16.1071 7.60715 16.1071C3.40584 16.1071 8.58307e-06 12.7013 8.58307e-06 8.49997C8.58307e-06 4.29866 3.40584 0.892822 7.60715 0.892822ZM13.7143 8.49997C13.7143 5.12708 10.98 2.39282 7.60715 2.39282C4.23427 2.39282 1.50001 5.12708 1.50001 8.49997C1.50001 11.8728 4.23427 14.6071 7.60715 14.6071C10.98 14.6071 13.7143 11.8728 13.7143 8.49997ZM6.94561 10.9997C6.6479 11.2525 6.206 11.2345 5.92982 10.9583L4.07654 9.10503C3.78365 8.81213 3.78365 8.33726 4.07654 8.04437C4.36944 7.75147 4.84431 7.75147 5.1372 8.04437L6.50165 9.40882L10.1214 6.33505C10.4372 6.06694 10.9105 6.10555 11.1786 6.42128C11.4467 6.73702 11.4081 7.21032 11.0923 7.47843L6.94561 10.9997Z" fill="#59C167"/>
</g>
<defs>
<clipPath id="clip0_591_68">
<rect width="15.2143" height="15.2143" fill="white" transform="matrix(-1 0 0 1 15.2143 0.892822)"/>
</clipPath>
</defs>
</svg>
