<svg width="118" height="22" viewBox="0 0 118 22" fill="none" xmlns="http://www.w3.org/2000/svg">
<path d="M36.6127 0.209946H0.759095L4.41243 5.39258H21.4047L0.33429 21.7901H34.7436L41.0307 16.7774H29.476L41.9653 6.15723L44.8539 21.7901H57.4282L60.7417 15.1631C63.9702 15.1065 70.3423 15.1631 71.2769 15.1631C71.97 15.1631 73.9956 14.3135 74.9302 13.8037C76.0347 13.2013 79.0933 11.085 80.3677 6.15723C81.3873 2.21503 77.9038 0.54979 76.0347 0.209946H61.3364L59.0425 5.39258C63.6304 5.33594 72.9081 5.25664 73.3159 5.39258C73.8257 5.5625 75.1001 5.64746 74.5054 7.77149C74.0296 9.47071 72.438 10.0654 71.7017 10.1504H63.5454L64.9048 7.17676H58.1079L51.6508 19.751L46.7231 0.209946H41.6254L21.7445 16.7774H14.8627L36.6127 0.209946Z" fill="#F5F5F5"/>
<path d="M74.5054 21.7901L85.3804 0.209946H91.2427L83.1714 16.7774H100.334L97.36 21.7901H74.5054Z" fill="#F5F5F5"/>
<path d="M117.666 0.16745H111.973L100.334 21.8326H106.536L117.666 0.16745Z" fill="#F5F5F5"/>
</svg>
