<svg width="98" height="98" viewBox="0 0 98 98" fill="none" xmlns="http://www.w3.org/2000/svg">
<g opacity="0.25">
<rect x="1.09143" y="0.5" width="96.1397" height="97" rx="16" fill="#354D73"/>
<path d="M78.9495 31.4712C78.9495 38.4795 73.2682 44.1608 66.26 44.1608C59.2517 44.1608 53.5704 38.4795 53.5704 31.4712C53.5704 24.4629 59.2517 18.7816 66.26 18.7816C73.2682 18.7816 78.9495 24.4629 78.9495 31.4712ZM61.5005 31.4712C61.5005 34.0998 63.6314 36.2307 66.26 36.2307C68.8885 36.2307 71.0194 34.0998 71.0194 31.4712C71.0194 28.8426 68.8885 26.7117 66.26 26.7117C63.6314 26.7117 61.5005 28.8426 61.5005 31.4712Z" fill="#E8E8F7"/>
<path fill-rule="evenodd" clip-rule="evenodd" d="M71.5269 76.624L63.9999 84.0063L69.6016 89.7178L77.1286 82.3355L85.0559 90.4183L90.7674 84.8166L82.8401 76.7339L91.0198 68.7115L85.4181 63L77.2384 71.0224L69.7611 63.3984L64.0496 69.0001L71.5269 76.624Z" fill="#E8E8F7"/>
<path d="M0.76886 70.2929C12.9207 70.2929 19.6957 28.4601 49.8066 58.7863" stroke="#E8E8F7" stroke-width="8"/>
</g>
</svg>
