<svg width="28" height="22" viewBox="0 0 28 22" fill="none" xmlns="http://www.w3.org/2000/svg">
<path fill-rule="evenodd" clip-rule="evenodd" d="M2.75978 9.49865C9.75627 6.4504 14.4217 4.4408 16.756 3.46986C23.4211 0.697633 24.806 0.216068 25.7087 0.200166C25.9073 0.196669 26.3512 0.245872 26.6387 0.479199C26.8815 0.676215 26.9483 0.942355 26.9803 1.12915C27.0123 1.31594 27.0521 1.74146 27.0204 2.07395C26.6593 5.86892 25.0964 15.0783 24.3013 19.3287C23.9649 21.1272 23.3025 21.7303 22.6612 21.7893C21.2674 21.9175 20.2091 20.8682 18.8592 19.9834C16.7469 18.5987 15.5536 17.7368 13.5032 16.3856C11.1337 14.8241 12.6698 13.9659 14.0202 12.5633C14.3736 12.1962 20.5143 6.61071 20.6332 6.10401C20.6481 6.04064 20.6619 5.80443 20.5215 5.6797C20.3812 5.55497 20.1741 5.59762 20.0246 5.63154C19.8128 5.67963 16.4383 7.91001 9.90128 12.3227C8.94345 12.9804 8.07588 13.3009 7.29857 13.2841C6.44165 13.2656 4.79327 12.7996 3.56787 12.4012C2.06487 11.9127 0.870313 11.6544 0.974332 10.8246C1.02851 10.3924 1.62366 9.95045 2.75978 9.49865Z" fill="#063971"/>
</svg>
