<svg width="24" height="24" viewBox="0 0 24 24" fill="none" xmlns="http://www.w3.org/2000/svg">
<path d="M23.0605 6.93198C22.4539 5.59159 21.5832 4.38818 20.4776 3.35109C19.372 2.32379 18.0903 1.51173 16.6619 0.944266C15.1845 0.357236 13.6191 0.0637207 12.0048 0.0637207C10.3905 0.0637207 8.82503 0.357236 7.34767 0.944266C5.91923 1.51173 4.63755 2.314 3.53197 3.35109C2.4264 4.38818 1.55565 5.59159 0.949051 6.93198C0.322886 8.32128 0 9.80842 0 11.3347C0 14.0057 0.997942 16.5691 2.82752 18.6041L1.84914 23.9363L7.05416 21.6175C8.60979 22.2828 10.2633 22.6155 11.995 22.6155C13.6093 22.6155 15.1748 22.322 16.6521 21.7349C18.0806 21.1675 19.3622 20.3652 20.4678 19.3281C21.5734 18.291 22.4441 17.0876 23.0507 15.7472C23.6769 14.3579 23.9998 12.8708 23.9998 11.3445C24.0096 9.80842 23.6867 8.33107 23.0605 6.93198Z" fill="#063971"/>
<path d="M16.8771 13.5849C16.3684 13.3306 15.9966 13.174 15.7324 13.0762C15.5661 13.0175 15.1748 12.8414 15.0378 12.949C14.6073 13.3012 14.1474 14.2992 13.6582 14.4851C12.4451 14.2502 11.3199 13.4186 10.4394 12.5674C10.048 12.1956 9.32402 11.139 9.16748 10.8553C9.13813 10.5617 9.66643 10.1704 9.78384 9.94536C10.3904 9.26049 9.93062 8.83 9.85235 8.54627C9.71537 8.25275 9.48057 7.72442 9.27511 7.29394C9.099 7.0102 9.05983 6.5895 8.74674 6.43296C7.41614 5.74809 6.65304 7.11783 6.33996 7.83205C4.45168 12.3815 15.8009 21.0402 18.1099 15.0721C18.2273 14.5535 18.1784 14.3579 18.0023 14.1231C17.65 13.8785 17.2391 13.7708 16.8771 13.5849Z" fill="white"/>
</svg>
